<svg id="Слой_1" data-name="Слой 1" xmlns="http://www.w3.org/2000/svg" viewBox="0 0 390.7 396.71" fill="#000000"><title>sunman</title><path d="M288.09,218.16h2c11.45,16.45,20.4,59.44,25.16,54.81,8.66-9.18,46.57-65.77,40.71-29.54.45,14.11-2.79,27.76-2.83,41.56,14.6-8.39,31.64-26.56,48-30.86,1.41,14.88-15.82,40.11-13.1,50.24,93.24-53.89,45-18.49,33.47,24,6.8-.91,56.3-15.09,45.74-3.14-28.07,36.36-45,33.94-20.15,36.15,8.14.83,40.1,2.37,32.27,8.81-72.86,42.42-25,14.17,5.38,44-8.53,8.61-48.22,11.68-45.05,16.39,5.8,3.76,49.83,29.77,33.84,31.4-10.52,1.72-23.78.28-35,.54,5.38,13.08,23.55,29.49,22.86,44.52-7.6,2.9-31.16-16.9-33.19-10,8.83,13.66,7.09,33.89,20.27,45.15,43.25,33.53-24.75-2.08-32.34-13.78-4.61,1.45,2.95,22.23,0,29.05-6.79,25.44-11.28,42.48-17.41,10.89-4.46,14-11.45,31.34-27.72,39.41-1.93.74-3.93-.68-1.74-3.84,10.93-52.39-7.09-14.67-27.2-5.45C249.86,652,204.63,555,206.28,581.37c-1.76,9,2.58,17.85,3,27-15.45-5.5-25.77-24.33-29.61-40.65C170.86,618.49,157,541.89,164,529.38c-12.16,1.74-30.48,26.25-46.9,27.55-9-4.2,17.92-16.06,18.8-21.7,1.74-8.85,23.2-51,6.7-37.64-52.32,29-13.64-16.18-2.72-33.7-72.95-1.81-24.11-10-1.52-35.68-63.05-14.13-53-15.67-6.62-31.42,12.56-2.77,4.72-4.44-4.11-9.27-67-34-2.84-17.76,15.19-29.41-9.39-9.35-38.22-33-32.06-37.61,78.74,10.41,43.61,16.95,23.64-39.2-7.12-19,59.9,29.8,57.67,22.07-3.42-9.67-24.89-59.93-9-47.54,53.82,34.2,42,39.79,40.19,5.61-9.92-71.36,25.45,5.61,42.62,11.45C271.89,254.7,278.62,235.47,288.09,218.16Zm81.19,182.36c12.21-68.62-129.53-59.32-157.88-28.19-5.5,23.12-7.47,54.63,16.07,70.15,7.86,8.17,6.12,19.37,7.27,31.42-48.71-98.06-12.88,60.93,56.79,53.65,78.83-10,92.24-146.53,52-52.58C343,427.88,375.64,438.07,369.28,400.52Zm-24.86,114.4c3.43-21.72-32.6,35.32-40.8,35.1-34.25,26.23-69.56-58.78-69.66-36.94.88,41.69-12,31.77,21.39,55.4,24.07,16.95-4.59-21.37-3.53-29.43,26.89,60.11,52.33,49.22,75.52-2.17-20.85,49-18.09,43,16.73,14.22C351.62,543.77,339.89,524.92,344.42,514.92Zm-174.65,32c.06,41.51,7.42-5.88,17.76-13.22-4.26,14,2,56.25,11.94,54.51-3-32.17,17.07-62.72,14.52-96.55,1.67-25.11-15.34,60.13-20.45,59.37.13-21.56,11.27-46.06,12.13-68.36-6.12,15.3-13.62,35.28-25.1,48,2.78-15,24.23-60.66,18.06-58.22C187.91,496.08,169.11,520.76,169.77,546.91Zm238.61,1.72c1.15-23.55-20.7-66.31-30.35-75,35.81,93.22,12.64,52.47-3.78,13-8.78-19.7,15.74,71.88,9.68,64.58-7.53-19.39-14.3-39.18-17.38-60.62-4.12-18.55-1.48,27.05.36,32,3.67,23.76,14.77,43.47,12.89,66.74,11.88-13.48,15-37.16,10.72-55.4C403,544.87,407.51,586.58,408.38,548.63Zm-130.2,57c6.22.49-4.81-10.86-2.35-12.56.3-2.57,9.3-7.29.66-8.07-51.43-9.46-60.19-57.6-63.32-35.06-11.08,28.84,16.58,4.06,19.64,19.44.95,4.54-1.64,17,4.89,19.68C277.31,571.12,245.82,602.32,278.18,605.66Zm61.39-16.19c8.7-2.72,3.68-15.38,6.69-23.49,8.44-6.85,34.08,9.16,14.95-21.85-15.08,21.79-37.33,37-62.86,42.41,9.57,12.22-4.48,15.33,1.24,19.13,9.9-.59,16.13-4.44,18.1-15.47C320.56,574.91,329.29,586.49,339.57,589.47ZM184.18,412.81c.45-31,21,8.11,16.07-11.91-18.18-25-27.21,11.38-19.25,26,3.65,18,28.24,32.62,22.81,10.41-21.69-21.15.06-20-11.79-30.95-11.31,1,.37,26.59,3.52,31C187.78,432.75,184,422.42,184.18,412.81Zm216.14-1.6c1.77-20.39-20.88-25.93-22.65-5.47.59,5.54,6.19-7.23,12.47-5.22,10.56,6.66,1.21,34.85-7.67,36.82,14.2-17.92,7.08-41.88-.13-25.46,6.06,21.65-5.19,14.62-9,29.69C378.42,466.42,404.15,422.55,400.32,411.21ZM189.12,314.6c-6.61-7.69-20.52-13.61-30.18-19.52-24.36-16.5,2.12,17.66,4.69,24.94C175.7,343.17,176.83,324.77,189.12,314.6ZM405,332.22C448,272.85,429,288.33,390.68,312.41,386.66,314.79,402.6,329.7,405,332.22Zm-228.1,107c-6.58-4.58-54,57.27-45.31,54.89C164.68,483.51,163.07,462,176.86,439.27ZM448.23,493c-32.5-48.07-66.62-85.85-26.19-11.81C427.35,485,441.09,494,448.23,493Zm-159-218.62c2.52-1.39,14.86,3.35,14.72-3.06-4.32-8.36-11.37-36.37-15.85-34.51C273,277.37,267,274.58,289.19,274.34Zm18.7,60.21c-1.07,10.42,5.74,6.49,14.1,9.16,13.88,3.32,24.54,10,22.76-7.92C334.05,331.16,303.88,315.21,307.89,334.55Zm-37.61-1.77c5.9-17.58-45.54,1.73-36.5,9.29,2.25,13.68,14.59,1.36,23,1.5C265.08,341.2,271.57,344,270.28,332.78ZM128.2,330.07c-7.88-.78,35.68,41,33.53,25.5C180.52,330.16,144.78,336.4,128.2,330.07Zm20.23,199.14c5.24-5.42,16.11-10.25,17.91-20.11.5-21.1,11.47-42.09,17.38-61.46C169.39,463.36,146,525.53,148.43,529.21Zm279-106c12.16-2.73,27.24-4.82,39.38-10.45C427.38,396.18,420.27,392.32,427.43,423.2Zm3.46,105.15c-6.66-24.15-34.42-88.59-36.62-79.44,5.4,13.7,11.78,27.28,15,41.9C410.93,507.31,414.78,524.07,430.89,528.35ZM152.28,410.57c5.54-22.95-27.51-.79-38.19.45-8.76,4.75,33,10.69,36.29,12.13C155.49,423.67,151.15,415.14,152.28,410.57ZM450.37,330c-43.83,9.59-46.45,4.6-31,29.77C429.12,354.49,456.11,330,450.37,330Zm-19.65,37.79V368c-1.91.36-11.3-1.83-8.77,4.47,4.1,25.52,3.77,17.47,22.57,9.72C483.86,364.52,445.71,371,430.72,367.83Zm-283.47.22c-9.43,1.05-21-.55-31.7,3.51,5.78,4.08,39.22,24.39,37.77,16C152.49,378.8,163.66,365.05,147.25,368.05Zm84.45-119.7c-2.39,45.88,1.15,36.87,24.36,28.76C251.82,268.15,239.52,257.64,231.7,248.35ZM289.3,323h0c-14.75-1.4-19,2.24-11.8,16.92,11.36.52,30,5.59,25.78-13C303.91,320.62,295.1,323.66,289.3,323Zm58-65c-.07-3,1.56-13.93-4.24-5.77-4.71,8.13-31.71,26.12-14.05,27.39C353.53,292.14,344.29,272.74,347.28,258ZM125.43,455.46c14.31,1.51,41.44-6.62,27.26-23C145.51,435,103.43,458.19,125.43,455.46Zm325.6-.11c28,3.82-22.86-22.56-26.12-22.74C414.07,448.54,436.67,457.31,451,455.35ZM201.76,303.24c21.63-14.29,20.91-9.92,1.81-24.45C174.86,252,197.14,295.55,201.76,303.24Zm174.9-.11c5.55-8.05,10.84-22.47,12.21-33.62C350.69,293.75,356.72,290.05,376.66,303.13Zm41.58,101.11c4.12-14-49.12-57.11-46-50.17C410.91,390.36,419.48,426,418.24,404.24Zm-258.34-.78c-.49,2,.24,13.69,3.43,5.33,9.84-20.89,28.33-38.11,42.62-56.06C190.4,363.2,158.69,391.31,159.9,403.46Zm63.39-96.56c-17-3.19-42.41,24.56-22.56,14.13,32.71-14.43,40.27-2.69,55.47-6.18A88.09,88.09,0,0,0,223.29,306.9Zm161.88,16c-11.05-20.53-50.1-19-62.72-6.29C352.08,308.27,366.68,319.29,385.17,322.85ZM161.76,384.12c.58,2.55.84,4.85,4-1.67,15.27-27.53,37-35.35,48-47.27C191.35,345.88,163.07,359.41,161.76,384.12ZM416.37,384c-.37-23.17-35.11-44.19-51.59-47.11,19.39,11.51,38.59,27.82,49.68,49.3C415.61,386.78,416.6,387.17,416.37,384ZM228,323.9c-15.91-2-58.86,10.58-52.54,27C191.15,336.33,208.79,329.24,228,323.9ZM195.43,457.74c-4.12-17.31-30.54,53.11-25,49.82C180,492.29,187.92,474.87,195.43,457.74ZM386.37,455c-6.61,1.1-1.29,7,1,13.14C430,559.92,397.78,464.68,386.37,455ZM353.51,323.44c-6.88,1.71,9.61,3.44,13.57,5.44,15.26,4.2,24.61,15.17,37.75,22.59C401.1,330.4,373.14,325.25,353.51,323.44Zm-41.45-39.53c-5.06-4.84-19.64,38.18-10.54,25C315.18,286.06,347.07,291.34,312.06,283.91Zm-44.71-.3c-38,5.85,5.22,9,11.31,27.71C282.89,314.69,271.5,280.76,267.35,283.61ZM289,282v-.11c-12-6.22-.07,35.27,1.27,31.64C288,301,304.08,279.19,289,282Zm64.57,19.17c3.94-13.63-38.87-4.25-38,8.76A58.36,58.36,0,0,1,353.54,301.17Zm-122.65-.93c16.69-.51,37.71,14.11,33.28,8.3C234.93,277.84,209.43,307.24,230.89,300.24ZM416.29,429c-7-19.77-9.08-14.89-11,.31C408.89,434.88,417,439.61,416.29,429ZM231.16,349.9c-3.74-15.06-9.67-3.88-15.3,5.37C207.22,365.3,229.3,354.59,231.16,349.9Zm-69.38,76.72c-.06,14.06,7.56,8.15,11.39,1.82C169.91,413,170.38,412.42,161.78,426.62Zm201.44-66.2c2.58-2.7-9.24-19.2-12.16-18.86C342.33,353.28,352.17,353.11,363.22,360.42ZM295.13,595.55c-.85-5-11.66-6.41-11.71.55C288.55,608.49,289.35,608.58,295.13,595.55Z" transform="translate(-94.03 -218.16)"/><path d="M297.13,411.3c-1.77-15.89,5.08-20.87,7.37-30.74.82-1.48-6.67-8,2.33-8.67,51.41-15.66,61.61,20.67,47.93,9-50.94-16-55.66,21.85-52.5,56.63C297.51,433,297.72,417.67,297.13,411.3Z" transform="translate(-94.03 -218.16)"/><path d="M240.17,376.93c-7.84-.41-15.11,3.44-22.78,6.52,9.32-20.84,39.19-17.45,57.82-9.05.7,3.76-3.62,6.94.49,11.5,13.33,13.19-.44,64.65-.16,47.41C279.93,398.07,273.67,379,240.17,376.93Z" transform="translate(-94.03 -218.16)"/><path d="M313.55,481.92c-19.49-.54-39,1.23-60.06-1C284.91,442.68,349.15,486.81,313.55,481.92Zm-7.62-3.34,3.58-.69c-4.91-6-37-6.08-40.68.05C280.69,478.88,292.74,477.65,305.93,478.58Z" transform="translate(-94.03 -218.16)"/><path d="M271.91,448.57c3.88-6.77,10.89,6.72,32.79-1.84,2,7.58,9.48,4.26,6.37-5.93.16-2.59-9.18-8.13-3.21-8.34,27.08,23.86-9.94,20.24-19.29,28.85-9.7-9.71-11.31-4.31-21.58-7-10-3.79-5-22.17,5.1-21.48C259.84,447.33,272.59,455.7,271.91,448.57Z" transform="translate(-94.03 -218.16)"/><path d="M248.18,392.36c51,11-4.08,33.63-25.87,8C229.49,397.72,238.26,391.58,248.18,392.36Zm-.25,18c10.05-.55,28.42-6.53,9.63-10.14-1.14,4.31-5.71,7-10.83,6.78C222.07,389.17,228.86,409.26,247.93,410.4Z" transform="translate(-94.03 -218.16)"/><path d="M331.69,392.34c8.29-.6,15,4.74,24.37,8.14C330.65,427.33,280.19,401.05,331.69,392.34Zm-.25,18.07c23.45-3.57,20.64-20-.57-3.13-4.47,1.25-7.11-6.29-11.95-7.54C303.89,407.12,323.66,408.69,331.44,410.41Z" transform="translate(-94.03 -218.16)"/><path d="M280.05,498.55c-6-2.31-13.73-4.42-18.48-11.17a84,84,0,0,0,55,.1c-18.41,18.46-20.77,2.16-10.74,19-11.74-5.79-23.72-4.42-35.47.62C271.36,503.5,275.36,501.37,280.05,498.55Z" transform="translate(-94.03 -218.16)"/></svg>